<svg xmlns="http://www.w3.org/2000/svg" viewBox="0 0 64 64">
  <rect width="64" height="64" rx="8" fill="#1a1a2e"/>
  <g transform="translate(12, 4)" fill="#e94560">
    <circle cx="20" cy="8" r="6"/>
    <path d="M10 16 C10 16, 14 14, 20 14 C26 14, 30 16, 30 16 L32 24 C32 24, 28 22, 20 22 C12 22, 8 24, 8 24 Z"/>
    <path d="M6 28 C6 28, 10 26, 20 26 C30 26, 34 28, 34 28 L36 36 C36 36, 30 33, 20 33 C10 33, 4 36, 4 36 Z"/>
    <path d="M2 40 C2 40, 8 37, 20 37 C32 37, 38 40, 38 40 L38 48 C38 48, 32 45, 20 45 C8 45, 2 48, 2 48 Z"/>
    <rect x="0" y="50" width="40" height="6" rx="2"/>
  </g>
</svg>
