<svg xmlns="http://www.w3.org/2000/svg" viewBox="0 0 512 512">
  <rect width="512" height="512" rx="64" fill="#1a1a2e"/>
  <g transform="translate(96, 32)" fill="#e94560">
    <circle cx="160" cy="64" r="48"/>
    <path d="M80 128 C80 128, 112 112, 160 112 C208 112, 240 128, 240 128 L256 192 C256 192, 224 176, 160 176 C96 176, 64 192, 64 192 Z"/>
    <path d="M48 224 C48 224, 80 208, 160 208 C240 208, 272 224, 272 224 L288 288 C288 288, 240 264, 160 264 C80 264, 32 288, 32 288 Z"/>
    <path d="M16 320 C16 320, 64 296, 160 296 C256 296, 304 320, 304 320 L304 384 C304 384, 256 360, 160 360 C64 360, 16 384, 16 384 Z"/>
    <rect x="0" y="400" width="320" height="48" rx="16"/>
  </g>
</svg>
