<svg xmlns="http://www.w3.org/2000/svg" viewBox="0 0 192 192">
  <rect width="192" height="192" rx="24" fill="#1a1a2e"/>
  <g transform="translate(36, 12)" fill="#e94560">
    <circle cx="60" cy="24" r="18"/>
    <path d="M30 48 C30 48, 42 42, 60 42 C78 42, 90 48, 90 48 L96 72 C96 72, 84 66, 60 66 C36 66, 24 72, 24 72 Z"/>
    <path d="M18 84 C18 84, 30 78, 60 78 C90 78, 102 84, 102 84 L108 108 C108 108, 90 99, 60 99 C30 99, 12 108, 12 108 Z"/>
    <path d="M6 120 C6 120, 24 111, 60 111 C96 111, 114 120, 114 120 L114 144 C114 144, 96 135, 60 135 C24 135, 6 144, 6 144 Z"/>
    <rect x="0" y="150" width="120" height="18" rx="6"/>
  </g>
</svg>
